<svg xmlns="http://www.w3.org/2000/svg" viewBox="0 0 243.98 218.97"><defs><style>.cls-1{fill:#fff;}.cls-2{fill:#84d1db;}.cls-3{fill:#fcb316;}.cls-4{fill:#1a57a4;}</style></defs><g id="Layer_2" data-name="Layer 2"><g id="Layer_1-2" data-name="Layer 1"><circle class="cls-1" cx="107.21" cy="110.36" r="88.8"/><path class="cls-2" d="M240.48,182.12a2.49,2.49,0,0,1-2.5-2.5V46.14a2.5,2.5,0,0,1,5,0V179.62A2.49,2.49,0,0,1,240.48,182.12Z"/><path class="cls-3" d="M241.48,182.12a2.49,2.49,0,0,1-2.5-2.5V46.14a2.5,2.5,0,0,1,5,0V179.62A2.49,2.49,0,0,1,241.48,182.12Z"/><path class="cls-4" d="M241.1,181.12a1.5,1.5,0,0,1-1.5-1.5V46.14a1.5,1.5,0,0,1,3,0V179.62A1.5,1.5,0,0,1,241.1,181.12Z"/><path class="cls-2" d="M109.48,219A109.49,109.49,0,1,1,219,109.48,109.61,109.61,0,0,1,109.48,219Zm0-209A99.49,99.49,0,1,0,209,109.48,99.6,99.6,0,0,0,109.48,10Z"/><path class="cls-1" d="M109.48,14.15a95.34,95.34,0,1,1-95.33,95.33,95.44,95.44,0,0,1,95.33-95.33m0-7A102.34,102.34,0,1,0,211.82,109.48,102.32,102.32,0,0,0,109.48,7.15Z"/><circle class="cls-1" cx="107.21" cy="110.36" r="88.8"/><path class="cls-2" d="M109.48,219A109.49,109.49,0,1,1,219,109.48,109.61,109.61,0,0,1,109.48,219Zm0-209A99.49,99.49,0,1,0,209,109.48,99.6,99.6,0,0,0,109.48,10Z"/><path class="cls-2" d="M109.49,13.81a95.68,95.68,0,1,0,95.67,95.67A95.67,95.67,0,0,0,109.49,13.81Zm29.42,170.05H107.29a4.76,4.76,0,0,1-4.75-4.75,4.76,4.76,0,0,1,4.75-4.75h31.62a4.75,4.75,0,0,1,0,9.5Zm21-16H127.29a4.76,4.76,0,0,1-4.75-4.75,4.76,4.76,0,0,1,4.75-4.75h32.62a4.75,4.75,0,0,1,0,9.5Zm-70.45-.1H64a4.76,4.76,0,0,1,0-9.51H89.46a4.76,4.76,0,0,1,0,9.51ZM174,132.28h-4.92a4.75,4.75,0,0,0,.16,9.5h-.43a4.75,4.75,0,0,1-.33,9.49H145.08a4.76,4.76,0,0,1,0-9.51h10a4.75,4.75,0,0,0-.16-9.48h-.16a4.75,4.75,0,0,1,.14-9.5H174a4.76,4.76,0,0,1,0,9.51Zm7-17.09H152.19a4.78,4.78,0,0,1-3.36-1.4,4.73,4.73,0,0,1,0-6.72,40.92,40.92,0,0,0-81.39-2.51h9.86c2,.08,3.64,2.18,3.64,4.74a5.42,5.42,0,0,1-1.11,3.36,3.37,3.37,0,0,1-2.53,1.39h0a5,5,0,0,0-.61.05H73c-2.06,0-3.75,2.14-3.75,4.76a5.43,5.43,0,0,0,1.1,3.35,3.41,3.41,0,0,0,2.65,1.4h8.4a2.62,2.62,0,0,0,.57-.06H96.52c2,.07,3.64,2.18,3.64,4.74a5.4,5.4,0,0,1-1.11,3.36,3.44,3.44,0,0,1-2.53,1.39H78.37a5,5,0,0,0-2.2,4.33,5.43,5.43,0,0,0,1.1,3.35,3.43,3.43,0,0,0,2.66,1.4h3.93a3.44,3.44,0,0,1,2.66,1.39,5.46,5.46,0,0,1,1.1,3.36c0,2.61-1.69,4.75-3.76,4.75H50.2a3.43,3.43,0,0,1-2.66-1.4,5.4,5.4,0,0,1-1.09-3.35c0-2.61,1.68-4.75,3.75-4.75H62.09c2.06,0,3.75-2.14,3.75-4.75a5,5,0,0,0-2.2-4.33H42.29a3.45,3.45,0,0,1-2.53-1.39,5.46,5.46,0,0,1-1.11-3.36c0-2.56,1.62-4.67,3.64-4.74h0c.74,0,1.42,0,2.06,0h4.87c2.07,0,3.75-2.14,3.75-4.75a5.48,5.48,0,0,0-1.09-3.35,3.4,3.4,0,0,0-2.66-1.4H36.49a3.52,3.52,0,0,1-2.17-1.36,5.27,5.27,0,0,1-1-2.74h-.06c0-.19,0-.38,0-.57a.43.43,0,0,1,0,0,.56.56,0,0,0,0-.07A74.82,74.82,0,0,1,182.75,106a4.75,4.75,0,0,1-1.75,9.17Z"/><path class="cls-1" d="M109.48,14.15a95.34,95.34,0,1,1-95.33,95.33,95.44,95.44,0,0,1,95.33-95.33m0-7A102.34,102.34,0,1,0,211.82,109.48,102.32,102.32,0,0,0,109.48,7.15Z"/></g></g></svg>