<svg xmlns="http://www.w3.org/2000/svg" viewBox="0 0 302.11 98"><defs><style>.cls-1{fill:#fff;}.cls-2{fill:#83d0da;}</style></defs><g id="Layer_2" data-name="Layer 2"><g id="Layer_1-2" data-name="Layer 1"><g id="Layer_2-2" data-name="Layer 2"><g id="Layer_1-2-2" data-name="Layer 1-2"><circle class="cls-1" cx="48.02" cy="49.36" r="39.78"/><path class="cls-1" d="M107.72,81.5a1.12,1.12,0,0,1-1.12-1.12h0V20.59a1.12,1.12,0,0,1,2.24,0V80.38A1.12,1.12,0,0,1,107.72,81.5Z"/><path class="cls-1" d="M108.17,81.5a1.12,1.12,0,0,1-1.12-1.12h0V20.59a1.12,1.12,0,1,1,2.24,0V80.38A1.12,1.12,0,0,1,108.17,81.5Z"/><path class="cls-1" d="M108,81.05a.67.67,0,0,1-.67-.67V20.59a.67.67,0,0,1,1.34,0V80.38A.67.67,0,0,1,108,81.05Z"/><path class="cls-1" d="M49,9.37A39.59,39.59,0,1,1,9.45,49v-.08A39.63,39.63,0,0,1,49,9.37m0-6.25a45.84,45.84,0,1,0,45.88,45.8A45.84,45.84,0,0,0,49,3.12Z"/><circle class="cls-1" cx="48.02" cy="49.36" r="39.78"/><path class="cls-2" d="M49,98A49,49,0,1,1,98,49,49,49,0,0,1,49,98ZM49,4.4A44.56,44.56,0,1,0,93.6,48.92,44.56,44.56,0,0,0,49,4.4Z"/><path class="cls-2" d="M49,6.1A42.86,42.86,0,1,0,91.9,48.92,42.86,42.86,0,0,0,49,6.1ZM62.22,82.28H48.06a2.13,2.13,0,1,1,0-4.26H62.22a2.13,2.13,0,0,1,0,4.26Zm9.41-7.17H57a2.13,2.13,0,0,1,0-4.26H71.63a2.13,2.13,0,0,1,0,4.26Zm-31.56,0H28.65a2.12,2.12,0,0,1-1.49-3.63,2.1,2.1,0,0,1,1.49-.62H40.07a2.1,2.1,0,1,1,0,4.2h0ZM78,59.17H75.74a2.13,2.13,0,0,0,.12,4.26h-.19a2.07,2.07,0,0,1,1.36.62,2.13,2.13,0,0,1-1.51,3.63H65a2.13,2.13,0,1,1,0-4.26h4.46a2.13,2.13,0,0,0-.07-4.25H69.3A2.12,2.12,0,0,1,67.24,57a2.14,2.14,0,0,1,2.13-2.12H78a2.17,2.17,0,0,1,1.5.63A2.13,2.13,0,0,1,78,59.17Zm3.13-7.65h-13a2.1,2.1,0,0,1-1.49-3.6A18.33,18.33,0,0,0,30.22,46.8h4.41a2,2,0,0,1,1.63,2.12,2.5,2.5,0,0,1-.49,1.51,1.5,1.5,0,0,1-1.14.62H32.71A2,2,0,0,0,31,53.17a2.4,2.4,0,0,0,.5,1.5,1.49,1.49,0,0,0,1.19.63h3.76a1,1,0,0,0,.25,0h6.51a2,2,0,0,1,1.64,2.13,2.4,2.4,0,0,1-.5,1.5,1.5,1.5,0,0,1-1.14.62H35.1a2.2,2.2,0,0,0-1,1.93A2.5,2.5,0,0,0,34.59,63a1.55,1.55,0,0,0,1.19.62h1.77a1.5,1.5,0,0,1,1.18.63,2.4,2.4,0,0,1,.5,1.5,2,2,0,0,1-1.68,2.13H22.49a1.53,1.53,0,0,1-1.2-.63,2.39,2.39,0,0,1-.49-1.5,2,2,0,0,1,1.69-2.13h5.32a2,2,0,0,0,1.68-2.13,2.2,2.2,0,0,0-1-1.93H19a1.49,1.49,0,0,1-1.19-.63,2.4,2.4,0,0,1-.5-1.5A2,2,0,0,1,19,55.27h3.1a1.94,1.94,0,0,0,1.68-2.12,2.5,2.5,0,0,0-.49-1.51A1.55,1.55,0,0,0,22.1,51H16.34a1.62,1.62,0,0,1-1-.61,2.39,2.39,0,0,1-.47-1.23h0v-.31a33.51,33.51,0,0,1,67-1.44,2.13,2.13,0,0,1-.78,4.11Z"/><path class="cls-1" d="M49,6.26A42.71,42.71,0,1,1,6.34,49v-.1A42.75,42.75,0,0,1,49,6.26m0-3.14a45.84,45.84,0,1,0,45.88,45.8A45.84,45.84,0,0,0,49,3.12Z"/><path class="cls-1" d="M140.79,39.37c0,5.85-3.66,11.71-11.62,11.71s-11.65-5.73-11.65-11.68,3.81-11.94,11.65-11.94S140.86,33.44,140.79,39.37Zm-19.07.09c.09,3.72,2.1,7.7,7.45,7.7s7.34-4,7.41-7.73-2.08-8.1-7.41-8.1S121.62,35.64,121.72,39.46Zm46.82,11.11h-5.09L156.85,43h-4.11v7.59h-4.27V27.88h10.78c5.33,0,8.1,3.6,8.1,7.5a6.72,6.72,0,0,1-5.73,7.13l6.92,7.76ZM152.74,31.9v7.24h6.48a3.63,3.63,0,1,0,.48-7.24h-7Zm44.33,7.47c0,5.85-3.66,11.71-11.61,11.71S173.8,45.35,173.8,39.4s3.83-11.94,11.66-11.94,11.7,6,11.63,11.91ZM178,39.46c.1,3.72,2.11,7.7,7.46,7.7s7.39-4,7.39-7.73-2.08-8.1-7.41-8.1-7.52,4.31-7.42,8.13Z"/><path class="cls-1" d="M215.44,43.89H209v6.68h-4.26V27.88h10.68a8,8,0,0,1,.07,16ZM209,40h6.49a4.05,4.05,0,1,0,0-8.1H209Zm39,10.59H231.09V27.88H248V32H235.32v5.2h12.27v4H235.32v5.11H248Zm6.79-22.69h17.48v2L260.5,46.51h11.75v4.06H254.54V48.1L266,31.9h-11.2Zm40.67,18.41H283.6l-1.93,4.28h-4.55l10.16-22.69h4.66l10.17,22.69h-4.67Zm-5.91-13.62-4.21,9.65h8.41Z"/><path class="cls-1" d="M120.86,69.93v4.86h-1.1V60.71H126c6.16,0,6.16,9.25,0,9.25Zm0-8.25v7.26H126c4.72,0,4.72-7.26,0-7.26Z"/><path class="cls-1" d="M154.74,67.78a7.14,7.14,0,1,1-14.27.68c0-.23,0-.46,0-.68a7.14,7.14,0,1,1,14.27-.68A3.86,3.86,0,0,1,154.74,67.78Zm-13.2,0a6.08,6.08,0,1,0,6.07-6.08A6.07,6.07,0,0,0,141.54,67.78Z"/><path class="cls-1" d="M179.09,67.78A7.13,7.13,0,1,1,172,60.65a7.14,7.14,0,0,1,7.13,7.13Zm-13.2,0a6.08,6.08,0,0,0,12.16,0,5.88,5.88,0,0,0-5.46-6.28,4.42,4.42,0,0,0-.63,0A5.83,5.83,0,0,0,165.88,67c0,.24,0,.47,0,.7Z"/><path class="cls-1" d="M190.87,60.71V73.84h7.95v1h-9V60.71Z"/><path class="cls-1" d="M218.16,63.4a4.57,4.57,0,0,0-4.25-1.91c-1.62,0-4.29.6-4.29,2.87,0,1.8,1.94,2.22,4.33,2.67,2.73.52,5.55,1,5.55,4s-3.24,4-5.59,4a6.34,6.34,0,0,1-5.83-3l1-.48a5.55,5.55,0,0,0,4.86,2.58c1.74,0,4.51-.49,4.51-3,0-2.13-2.32-2.6-4.65-3-2.6-.51-5.24-1-5.24-3.65,0-3,3.05-3.92,5.38-3.92A5.42,5.42,0,0,1,219.08,63Z"/></g></g></g></g></svg>