<svg id="Layer_1" data-name="Layer 1" xmlns="http://www.w3.org/2000/svg" viewBox="0 0 64 64"><defs><style>.cls-1{fill:#fff;}.cls-2{fill:#83d0da;}</style></defs><circle class="cls-1" cx="31.37" cy="32.35" r="25.6"/><path class="cls-2" d="M32,63.11a31,31,0,1,1,31-31A31,31,0,0,1,32,63.11ZM32,2.86A29.24,29.24,0,1,0,61.26,32.1,29.28,29.28,0,0,0,32,2.86Z"/><path class="cls-2" d="M32,4.52A27.58,27.58,0,1,0,59.6,32.1,27.58,27.58,0,0,0,32,4.52Zm8.48,49H31.39a1.37,1.37,0,0,1,0-2.74H40.5a1.4,1.4,0,0,1,1,.4,1.37,1.37,0,0,1-1,2.34Zm6.06-4.61H37.15a1.37,1.37,0,0,1,0-2.74h9.41a1.37,1.37,0,0,1,1.37,1.37A1.38,1.38,0,0,1,46.56,48.93Zm-20.31,0H18.9a1.4,1.4,0,0,1-1-.4,1.37,1.37,0,0,1,1-2.34h7.35a1.38,1.38,0,0,1,1,.4,1.4,1.4,0,0,1,.4,1A1.38,1.38,0,0,1,26.25,48.9ZM50.62,38.67H49.21A1.37,1.37,0,0,0,47.88,40a1.37,1.37,0,0,0,1.37,1.37h-.12a1.34,1.34,0,0,1,.87.4,1.35,1.35,0,0,1,.4,1A1.37,1.37,0,0,1,49,44.15H42.28a1.35,1.35,0,0,1-1-.41,1.36,1.36,0,0,1,1-2.34h2.87A1.37,1.37,0,0,0,46,39.07a1.34,1.34,0,0,0-.92-.4h0a1.37,1.37,0,0,1-.93-.4,1.4,1.4,0,0,1-.4-1,1.38,1.38,0,0,1,1.37-1.37h5.52a1.4,1.4,0,0,1,1,.4,1.37,1.37,0,0,1-1,2.34Zm2-4.93H44.33a1.34,1.34,0,0,1-1-.4,1.37,1.37,0,0,1-.41-1,1.39,1.39,0,0,1,.41-1,11.8,11.8,0,0,0-23.46-.72h2.84a1.27,1.27,0,0,1,1.05,1.37,1.61,1.61,0,0,1-.32,1,1,1,0,0,1-.73.4h0l-.18,0H21.51a1.25,1.25,0,0,0-1.09,1.37,1.58,1.58,0,0,0,.32,1,1,1,0,0,0,.77.41h2.42l.16,0h4.19a1.27,1.27,0,0,1,1,1.37,1.55,1.55,0,0,1-.32,1,1,1,0,0,1-.73.4H23.05a1.44,1.44,0,0,0-.63,1.25,1.6,1.6,0,0,0,.31,1,1,1,0,0,0,.77.41h1.13a1,1,0,0,1,.77.4,1.55,1.55,0,0,1,.32,1,1.26,1.26,0,0,1-1.09,1.37h-9.7a1,1,0,0,1-.77-.41,1.6,1.6,0,0,1-.31-1,1.25,1.25,0,0,1,1.08-1.37h3.43a1.26,1.26,0,0,0,1.08-1.37,1.42,1.42,0,0,0-.64-1.25H12.65a1,1,0,0,1-.73-.4,1.55,1.55,0,0,1-.32-1,1.27,1.27,0,0,1,1.05-1.37h2a1.26,1.26,0,0,0,1.08-1.37,1.55,1.55,0,0,0-.32-1,1,1,0,0,0-.76-.4H11a1,1,0,0,1-.63-.39,1.58,1.58,0,0,1-.3-.79h0v-.17h0v0a21.57,21.57,0,0,1,43.11-.93,1.37,1.37,0,0,1-.5,2.64Z"/><path class="cls-1" d="M32,3.83A28.28,28.28,0,0,1,52,52.09a28.27,28.27,0,0,1-40-40A28.09,28.09,0,0,1,32,3.83M32,2.6a29.5,29.5,0,1,0,29.5,29.5A29.5,29.5,0,0,0,32,2.6Z"/></svg>