<svg xmlns="http://www.w3.org/2000/svg" xmlns:xlink="http://www.w3.org/1999/xlink" viewBox="0 0 71.77 30.56"><defs><style>.cls-1{fill:#fff;}.cls-2{fill:#84d1db;}.cls-3{fill:#fcb316;}.cls-4{fill:#1a57a4;}.cls-5{fill:url(#linear-gradient);}.cls-6{fill:url(#linear-gradient-2);}</style><linearGradient id="linear-gradient" x1="34.84" y1="12.32" x2="50.89" y2="15.74" gradientUnits="userSpaceOnUse"><stop offset="0" stop-color="#fcb316"/><stop offset="1" stop-color="#d2b92a"/></linearGradient><linearGradient id="linear-gradient-2" x1="77.9" y1="11.5" x2="54.01" y2="15.75" gradientUnits="userSpaceOnUse"><stop offset="0" stop-color="#84d1db"/><stop offset="0.06" stop-color="#78c3d5"/><stop offset="0.29" stop-color="#5095c0"/><stop offset="0.49" stop-color="#3273b1"/><stop offset="0.66" stop-color="#205ea7"/><stop offset="0.77" stop-color="#1a57a4"/></linearGradient></defs><g id="Layer_2" data-name="Layer 2"><g id="Layer_1-2" data-name="Layer 1"><circle class="cls-1" cx="14.96" cy="15.4" r="12.39"/><path class="cls-2" d="M33.56,25.42a.35.35,0,0,1-.35-.35V6.44a.35.35,0,1,1,.7,0V25.07A.35.35,0,0,1,33.56,25.42Z"/><path class="cls-3" d="M33.7,25.42a.35.35,0,0,1-.35-.35V6.44a.35.35,0,0,1,.7,0V25.07A.35.35,0,0,1,33.7,25.42Z"/><path class="cls-4" d="M33.65,25.28a.21.21,0,0,1-.21-.21V6.44a.21.21,0,0,1,.21-.21.21.21,0,0,1,.21.21V25.07A.22.22,0,0,1,33.65,25.28Z"/><path class="cls-1" d="M15.28,2.94A12.34,12.34,0,1,1,2.94,15.28,12.35,12.35,0,0,1,15.28,2.94m0-1.94A14.28,14.28,0,1,0,29.56,15.28,14.28,14.28,0,0,0,15.28,1Z"/><circle class="cls-1" cx="14.96" cy="15.4" r="12.39"/><path class="cls-2" d="M15.28,30.56A15.28,15.28,0,1,1,30.56,15.28,15.3,15.3,0,0,1,15.28,30.56Zm0-29.16A13.88,13.88,0,1,0,29.16,15.28,13.89,13.89,0,0,0,15.28,1.4Z"/><path class="cls-2" d="M15.28,1.93A13.35,13.35,0,1,0,28.63,15.28,13.35,13.35,0,0,0,15.28,1.93Zm4.11,23.73H15a.67.67,0,0,1-.47-.2.64.64,0,0,1-.19-.46.67.67,0,0,1,.66-.67h4.42a.69.69,0,0,1,.47.2.65.65,0,0,1,.19.47A.67.67,0,0,1,19.39,25.66Zm2.93-2.23H17.76a.68.68,0,0,1-.66-.67.67.67,0,0,1,.66-.66h4.56a.67.67,0,0,1,.47.19.68.68,0,0,1,.19.47A.67.67,0,0,1,22.32,23.43Zm-9.83,0H8.93a.65.65,0,0,1-.47-.19.67.67,0,0,1-.2-.47.66.66,0,0,1,.67-.66h3.56a.64.64,0,0,1,.46.19.67.67,0,0,1,.2.47A.67.67,0,0,1,12.49,23.41Zm11.79-4.95H23.6a.67.67,0,0,0-.45,1.13.67.67,0,0,0,.47.2h-.06a.67.67,0,0,1,.62.66.67.67,0,0,1-.67.66H20.25a.67.67,0,0,1-.47-.19.66.66,0,0,1,.47-1.14h1.39a.66.66,0,0,0,.61-.66.67.67,0,0,0-.19-.47.69.69,0,0,0-.45-.19h0a.73.73,0,0,1-.45-.19.67.67,0,0,1,.47-1.14h2.67a.68.68,0,0,1,.67.67A.67.67,0,0,1,24.28,18.46Zm1-2.38h-4a.67.67,0,0,1-.47-.2.68.68,0,0,1,0-.94,5.71,5.71,0,0,0-11.36-.35h1.38a.62.62,0,0,1,.51.67.71.71,0,0,1-.16.46.47.47,0,0,1-.35.2h-.6a.6.6,0,0,0-.52.66.73.73,0,0,0,.15.47.47.47,0,0,0,.37.19h3.28a.61.61,0,0,1,.51.66.74.74,0,0,1-.16.47.46.46,0,0,1-.35.19H10.94a.71.71,0,0,0-.31.6.78.78,0,0,0,.15.47.5.5,0,0,0,.37.2h.55a.45.45,0,0,1,.37.19.74.74,0,0,1,.16.47.6.6,0,0,1-.53.66H7A.49.49,0,0,1,6.63,21a.8.8,0,0,1-.15-.47A.61.61,0,0,1,7,19.84H8.66a.61.61,0,0,0,.53-.67.71.71,0,0,0-.31-.6h-3a.46.46,0,0,1-.35-.19.74.74,0,0,1-.16-.47.61.61,0,0,1,.51-.66h1a.6.6,0,0,0,.52-.66.8.8,0,0,0-.15-.47.5.5,0,0,0-.37-.2H5.09a.47.47,0,0,1-.3-.19.76.76,0,0,1-.15-.38h0v-.08h0A10.44,10.44,0,0,1,25.5,14.8a.64.64,0,0,1,.42.61A.67.67,0,0,1,25.26,16.08Z"/><path class="cls-1" d="M15.28,2A13.31,13.31,0,1,1,2,15.28,13.32,13.32,0,0,1,15.28,2m0-1A14.28,14.28,0,1,0,29.56,15.28,14.28,14.28,0,0,0,15.28,1Z"/><path class="cls-5" d="M40.78,14.28a2.15,2.15,0,0,1-2.24,2.25,2.12,2.12,0,0,1-2.24-2.25,2.24,2.24,0,1,1,4.48,0Zm-3.67,0a1.43,1.43,0,1,0,2.86,0,1.44,1.44,0,1,0-2.86,0Zm9,2.13h-1L43.87,15h-.79v1.46h-.82V12.07h2.07a1.44,1.44,0,0,1,1.56,1.44,1.29,1.29,0,0,1-1.1,1.37l1.32,1.48Zm-3-3.59v1.39h1.25a.67.67,0,0,0,.74-.69.68.68,0,0,0-.74-.7Zm8.52,1.44a2.24,2.24,0,1,1-4.47,0,2.24,2.24,0,1,1,4.47,0Zm-3.67,0a1.43,1.43,0,1,0,2.86,0,1.44,1.44,0,1,0-2.86,0Z"/><path class="cls-6" d="M55.13,15.15H53.89v1.28h-.82V12.08h2.06A1.54,1.54,0,1,1,55.13,15.15Zm-1.24-.75h1.24a.78.78,0,1,0,0-1.55H53.89Zm7.51,2H58.14V12.08H61.4v.79H59v1h2.36v.77H59v1H61.4Zm1.3-4.35h3.35v.38l-2.26,3.19h2.26v.78h-3.4V16l2.2-3.11H62.7Zm7.81,3.53H68.23l-.37.82H67l2-4.35h.9l2,4.35h-.89ZM69.37,13l-.81,1.85h1.62Z"/><path class="cls-4" d="M36.94,20.16v.94h-.21V18.37h1.2a.9.9,0,0,1,0,1.79Zm0-1.59V20h1a.7.7,0,0,0,0-1.39Z"/><path class="cls-4" d="M43.46,19.74a1.38,1.38,0,1,1-1.37-1.41A1.33,1.33,0,0,1,43.46,19.74Zm-2.54,0a1.17,1.17,0,1,0,1.17-1.21A1.12,1.12,0,0,0,40.92,19.74Z"/><path class="cls-4" d="M48.14,19.74a1.37,1.37,0,1,1-2.74,0,1.37,1.37,0,1,1,2.74,0Zm-2.54,0a1.17,1.17,0,1,0,2.34,0,1.17,1.17,0,1,0-2.34,0Z"/><path class="cls-4" d="M50.4,18.37V20.9h1.53v.2H50.19V18.37Z"/><path class="cls-4" d="M55.65,18.9a.87.87,0,0,0-.82-.37c-.32,0-.83.12-.83.55s.38.43.84.52,1.06.19,1.06.78-.62.76-1.07.76a1.24,1.24,0,0,1-1.12-.59l.19-.1a1,1,0,0,0,.93.5c.33,0,.86-.09.86-.58s-.44-.49-.89-.58-1-.2-1-.7.59-.75,1-.75a1,1,0,0,1,1,.46Z"/></g></g></svg>