<svg xmlns="http://www.w3.org/2000/svg" viewBox="0 0 198.85 89.54"><defs><style>.cls-1{fill:#fff;}.cls-2{fill:#84d1db;}</style></defs><g id="Layer_2" data-name="Layer 2"><g id="Layer_1-2" data-name="Layer 1"><circle class="cls-1" cx="43.9" cy="45.1" r="33.8"/><path class="cls-1" d="M94.63,72.42a1,1,0,0,1-.95-1V20.66a1,1,0,0,1,1.9,0V71.47A1,1,0,0,1,94.63,72.42Z"/><path class="cls-1" d="M95,72.42a1,1,0,0,1-1-1V20.66a1,1,0,1,1,1.9,0V71.47A1,1,0,0,1,95,72.42Z"/><path class="cls-1" d="M94.87,72a.57.57,0,0,1-.57-.57V20.66a.56.56,0,0,1,.57-.57.57.57,0,0,1,.57.57V71.47A.58.58,0,0,1,94.87,72Z"/><path class="cls-2" d="M44.77,89.54A44.77,44.77,0,1,1,89.54,44.77,44.82,44.82,0,0,1,44.77,89.54Zm0-79.54A34.77,34.77,0,1,0,79.54,44.77,34.81,34.81,0,0,0,44.77,10Z"/><path class="cls-1" d="M44.77,12.82a31.95,31.95,0,1,1-31.95,32,32,32,0,0,1,32-31.95m0-7a39,39,0,1,0,38.95,39A39,39,0,0,0,44.77,5.82Z"/><circle class="cls-1" cx="43.9" cy="45.1" r="33.8"/><path class="cls-2" d="M44.77,86.44A41.67,41.67,0,1,1,86.44,44.77,41.71,41.71,0,0,1,44.77,86.44Zm0-79.54A37.87,37.87,0,1,0,82.64,44.77,37.91,37.91,0,0,0,44.77,6.9Z"/><path class="cls-2" d="M44.77,8.35A36.42,36.42,0,1,0,81.19,44.77,36.43,36.43,0,0,0,44.77,8.35ZM56,73.08h-12a1.78,1.78,0,0,1-1.27-.53,1.81,1.81,0,0,1,1.27-3.09H56a1.84,1.84,0,0,1,1.28.53A1.81,1.81,0,0,1,56,73.08ZM64,67H51.55a1.81,1.81,0,0,1,0-3.62H64A1.81,1.81,0,0,1,64,67ZM37.15,67H27.44a1.78,1.78,0,0,1-1.27-.53,1.81,1.81,0,0,1,1.27-3.09h9.71a1.84,1.84,0,0,1,1.28.53A1.81,1.81,0,0,1,37.15,67Zm32.18-13.5H67.46a1.81,1.81,0,0,0,.06,3.61h-.17a1.82,1.82,0,0,1,1.16.53,1.8,1.8,0,0,1-1.28,3.08H58.32a1.81,1.81,0,1,1,0-3.61h3.79A1.81,1.81,0,0,0,63.27,54a1.78,1.78,0,0,0-1.22-.53H62a1.82,1.82,0,0,1-1.23-.52,1.86,1.86,0,0,1-.53-1.28A1.82,1.82,0,0,1,62,49.83h7.29a1.81,1.81,0,0,1,0,3.62ZM72,46.94H61a1.81,1.81,0,0,1-1.28-3.09,15.57,15.57,0,0,0-31-1h3.75a1.66,1.66,0,0,1,1.38,1.8A2,2,0,0,1,33.49,46a1.28,1.28,0,0,1-1,.53h0a.93.93,0,0,0-.23,0H30.89a1.65,1.65,0,0,0-1.43,1.81,2.06,2.06,0,0,0,.42,1.27,1.3,1.3,0,0,0,1,.53h3.19a.78.78,0,0,0,.22,0h5.54a1.67,1.67,0,0,1,1.38,1.81,2.07,2.07,0,0,1-.42,1.28,1.34,1.34,0,0,1-1,.53H32.93a1.86,1.86,0,0,0-.84,1.64,2.07,2.07,0,0,0,.42,1.28,1.3,1.3,0,0,0,1,.53H35a1.33,1.33,0,0,1,1,.53A2.09,2.09,0,0,1,36.45,59,1.66,1.66,0,0,1,35,60.82H22.2a1.3,1.3,0,0,1-1-.53A2.06,2.06,0,0,1,20.78,59,1.66,1.66,0,0,1,22.2,57.2h4.53a1.66,1.66,0,0,0,1.43-1.81,1.88,1.88,0,0,0-.84-1.64H19.2a1.34,1.34,0,0,1-1-.53,2.07,2.07,0,0,1-.42-1.28,1.67,1.67,0,0,1,1.39-1.81h2.63a1.66,1.66,0,0,0,1.43-1.81A2.07,2.07,0,0,0,22.84,47a1.3,1.3,0,0,0-1-.53H17a1.33,1.33,0,0,1-.83-.52,2,2,0,0,1-.4-1h0v-.26a28.48,28.48,0,0,1,56.92-1.23A1.81,1.81,0,0,1,72,46.94Z"/><path class="cls-1" d="M44.77,8.48A36.29,36.29,0,1,1,8.48,44.77,36.33,36.33,0,0,1,44.77,8.48m0-2.66a39,39,0,1,0,38.95,39A39,39,0,0,0,44.77,5.82Z"/><path class="cls-1" d="M114.31,42c0,3.07-1.92,6.14-6.09,6.14a5.78,5.78,0,0,1-6.11-6.12c0-3.13,2-6.26,6.11-6.26A5.9,5.9,0,0,1,114.31,42Zm-10,.05c.06,1.95,1.11,4,3.91,4s3.85-2.11,3.88-4.06-1.08-4.24-3.88-4.24A3.87,3.87,0,0,0,104.31,42.09Zm24.56,5.82H126.2l-3.46-4h-2.15v4h-2.24V36H124A3.94,3.94,0,0,1,128.27,40a3.52,3.52,0,0,1-3,3.73l3.6,4.06Zm-8.28-9.79v3.8H124a1.9,1.9,0,1,0,0-3.8ZM143.83,42c0,3.07-1.92,6.14-6.09,6.14a5.78,5.78,0,0,1-6.11-6.12c0-3.13,2-6.26,6.11-6.26A5.9,5.9,0,0,1,143.83,42Zm-10,.05c0,1.95,1.1,4,3.9,4s3.85-2.11,3.88-4.06-1.08-4.24-3.88-4.24A3.85,3.85,0,0,0,133.84,42.09Z"/><path class="cls-1" d="M153.45,44.42h-3.36v3.49h-2.24V36h5.6A4.2,4.2,0,1,1,153.45,44.42Zm-3.36-2.06h3.36a2.11,2.11,0,1,0,0-4.21h-3.36Zm20.46,5.55h-8.89V36h8.89V38.2h-6.67v2.74h6.43V43h-6.43V45.7h6.67ZM174.11,36h9.13v1l-6.16,8.71h6.16v2.12H174V46.62l6-8.48h-5.87Zm21.3,9.64H189.2l-1,2.24h-2.43L191.08,36h2.44l5.33,11.88h-2.44Zm-3.11-7.14-2.2,5h4.41Z"/><path class="cls-1" d="M103.86,58.07v2.57h-.58V53.21h3.26a2.43,2.43,0,0,1,0,4.86Zm0-4.33v3.81h2.68a1.91,1.91,0,0,0,0-3.81Z"/><path class="cls-1" d="M121.63,56.93a3.75,3.75,0,1,1-7.49,0,3.75,3.75,0,1,1,7.49,0Zm-6.92,0a3.19,3.19,0,1,0,6.37,0,3.08,3.08,0,0,0-3.19-3.29A3,3,0,0,0,114.71,56.92Z"/><path class="cls-1" d="M134.4,56.93a3.75,3.75,0,1,1-7.49,0,3.75,3.75,0,1,1,7.49,0Zm-6.93,0a3.19,3.19,0,1,0,6.38,0,3.09,3.09,0,0,0-3.2-3.29A3,3,0,0,0,127.47,56.92Z"/><path class="cls-1" d="M140.57,53.21v6.88h4.18v.55H140V53.21Z"/><path class="cls-1" d="M154.88,54.64a2.39,2.39,0,0,0-2.24-1c-.87,0-2.25.32-2.25,1.5,0,1,1,1.17,2.27,1.4,1.43.28,2.91.53,2.91,2.13s-1.69,2.08-2.93,2.08a3.35,3.35,0,0,1-3-1.61l.51-.25a2.91,2.91,0,0,0,2.54,1.34c.91,0,2.36-.25,2.36-1.57,0-1.11-1.22-1.35-2.44-1.59s-2.75-.54-2.75-1.91c0-1.57,1.61-2,2.83-2a2.85,2.85,0,0,1,2.71,1.26Z"/></g></g></svg>